<svg width="10" height="10" viewBox="0 0 10 10" fill="none" xmlns="http://www.w3.org/2000/svg">
<path d="M9.2661 4.72791C8.87668 4.91263 8.44234 5.00749 7.98802 5.00749C6.3305 5.00749 4.99251 3.6695 4.99251 2.01198C4.99251 1.55766 5.10235 1.13829 5.28707 0.748877L5.63155 0L4.8028 0.0299551C2.13679 0.124813 0 2.31653 0 5.00749C0 7.69845 2.24164 10 4.99251 10C7.74338 10 9.87519 7.8632 9.97004 5.1972L10 4.38842L9.2661 4.7329V4.72791ZM4.99251 9.0015C2.78083 9.0015 0.998502 7.21917 0.998502 5.00749C0.998502 3.08537 2.37644 1.56765 4.18372 1.18323C4.12381 1.45781 3.99401 1.71243 3.99401 2.01198C3.99401 4.21368 5.78632 6.00599 7.98802 6.00599C8.29256 6.00599 8.54718 5.88118 8.83175 5.81628C8.45232 7.62356 6.91962 9.0015 4.99251 9.0015Z" fill="#FFF8E7"/>
</svg>
