<svg width="12" height="12" viewBox="0 0 12 12" fill="none" xmlns="http://www.w3.org/2000/svg">
<rect width="12" height="12" fill="#1E1E1E"/>
<path d="M-51 -3242C-51 -3243.1 -50.1046 -3244 -49 -3244H1041C1042.1 -3244 1043 -3243.1 1043 -3242V3945C1043 3946.1 1042.1 3947 1041 3947H-49C-50.1046 3947 -51 3946.1 -51 3945V-3242Z" fill="#404040"/>
<path d="M-49 -3243H1041V-3245H-49V-3243ZM1042 -3242V3945H1044V-3242H1042ZM1041 3946H-49V3948H1041V3946ZM-50 3945V-3242H-52V3945H-50ZM-49 3946C-49.5523 3946 -50 3945.55 -50 3945H-52C-52 3946.66 -50.6569 3948 -49 3948V3946ZM1042 3945C1042 3945.55 1041.55 3946 1041 3946V3948C1042.66 3948 1044 3946.66 1044 3945H1042ZM1041 -3243C1041.55 -3243 1042 -3242.55 1042 -3242H1044C1044 -3243.66 1042.66 -3245 1041 -3245V-3243ZM-49 -3245C-50.6568 -3245 -52 -3243.66 -52 -3242H-50C-50 -3242.55 -49.5523 -3243 -49 -3243V-3245Z" fill="white" fill-opacity="0.1"/>
<path d="M3.14182 2.35068L2.16 1.36986L1.39091 2.14247L2.36727 3.12329L3.14182 2.35068ZM0 5.45205H1.63636V6.54794H0V5.45205ZM5.45455 0H6.54545V1.61644H5.45455V0ZM9.84 1.36712L10.608 2.13808L9.63164 3.1189L8.86418 2.3474L9.84 1.36712ZM8.85818 9.64931L9.83455 10.6356L10.6036 9.86301L9.62182 8.88219L8.85818 9.64931ZM10.3636 5.45205H12V6.54794H10.3636V5.45205ZM6 2.71233C4.19455 2.71233 2.72727 4.1863 2.72727 6C2.72727 7.8137 4.19455 9.28767 6 9.28767C7.80545 9.28767 9.27273 7.8137 9.27273 6C9.27273 4.1863 7.80545 2.71233 6 2.71233ZM6 8.19178C4.79455 8.19178 3.81818 7.21096 3.81818 6C3.81818 4.78904 4.79455 3.80822 6 3.80822C7.20545 3.80822 8.18182 4.78904 8.18182 6C8.18182 7.21096 7.20545 8.19178 6 8.19178ZM5.45455 10.3836H6.54545V12H5.45455V10.3836ZM1.39091 9.85753L2.16 10.6301L3.13636 9.64384L2.36727 8.87123L1.39091 9.85753Z" fill="white"/>
</svg>
