<svg width="16" height="16" viewBox="0 0 16 16" fill="none" xmlns="http://www.w3.org/2000/svg">
<path d="M0.5 0.5V11.75H4.25V15.5H15.5V4.25H11.75V0.5H0.5ZM1.75 1.75H10.5V4.60156L4.60156 10.5H1.75V1.75ZM4.875 3V3.625H3V4.875H6.08594C6.00537 5.59277 5.78564 6.15918 5.42188 6.55469C5.20703 6.48389 5.01416 6.396 4.85547 6.30078C4.41602 6.03955 4.25 5.76123 4.25 5.5H3C3 6.24463 3.45898 6.86475 4.07422 7.27734C3.7666 7.34326 3.41016 7.375 3 7.375V8.625C4.1084 8.625 5.03125 8.37109 5.73438 7.90234C6.06152 7.9585 6.39356 8 6.75 8V6.82812C7.08936 6.25928 7.27002 5.59521 7.33594 4.875H8V3.625H6.125V3H4.875ZM11.3984 5.5H14.25V14.25H5.5V11.3984L11.3984 5.5ZM10.5 6.65234L9.91406 8.42969L8.66406 12.1797L8.625 12.2773V13H9.875V12.4531L9.89453 12.375H11.1055L11.125 12.4531V13H12.375V12.2773L12.3359 12.1797L11.0859 8.42969L10.5 6.65234ZM10.5 10.5781L10.6758 11.125H10.3242L10.5 10.5781Z" fill="#FFB6C1"/>
</svg>
