<svg width="15" height="15" viewBox="0 0 15 15" fill="none" xmlns="http://www.w3.org/2000/svg">
<path d="M2.36865 0.125L2.27466 0.612061C2.27466 0.612061 2.16929 0.974658 1.92554 1.33716C1.67554 1.69966 1.3625 2 0.75 2V3.25C1.6125 3.25 2.2 2.8249 2.625 2.36865V6.375H3.875V0.125H2.36865ZM11.375 0.4375L10.9246 0.868408L8.25 3.5625L9.13135 4.44385L10.75 2.81909V14.5H12V2.81909L13.6187 4.44385L14.5 3.5625L11.8254 0.868408L11.375 0.4375ZM2.3125 7.625C1.1125 7.625 0.125 8.6125 0.125 9.8125V10.125H1.375V9.8125C1.375 9.2625 1.7625 8.875 2.3125 8.875H2.9375C3.4875 8.875 3.875 9.2625 3.875 9.8125C3.875 10.1 3.65659 10.4249 3.28784 10.6499C2.51909 11.1249 1.84365 11.4312 1.2749 11.7437C0.993652 11.9062 0.736963 12.0567 0.511963 12.2942C0.293213 12.5317 0.125 12.8875 0.125 13.25V13.875H5.125V12.625H2.27466C2.73091 12.3875 3.26196 12.1503 3.94946 11.7253C4.58696 11.3316 5.125 10.65 5.125 9.8125C5.125 8.6125 4.1375 7.625 2.9375 7.625H2.3125Z" fill="#FFB6C1"/>
</svg>
